<mxfile host="app.diagrams.net" modified="2022-03-03T15:14:34.233Z" agent="5.0 (Windows NT 10.0; Win64; x64) AppleWebKit/537.36 (KHTML, like Gecko) Chrome/97.0.4692.71 Safari/537.36" etag="S3NLgWVRdp5FwbZtJFHH" version="14.7.7" type="github">
  <diagram id="ecf_YhEoZfV6Vfr8hlxx" name="第 1 页">
    <mxGraphModel dx="1209" dy="741" grid="1" gridSize="10" guides="1" tooltips="1" connect="1" arrows="1" fold="1" page="1" pageScale="1" pageWidth="827" pageHeight="1169" math="0" shadow="0">
      <root>
        <mxCell id="0" />
        <mxCell id="1" parent="0" />
        <mxCell id="_eNuCBLW-sJYMqaG0HMH-1" value="词法分析器" style="rounded=0;whiteSpace=wrap;html=1;" vertex="1" parent="1">
          <mxGeometry x="410" y="130" width="200" height="40" as="geometry" />
        </mxCell>
        <mxCell id="_eNuCBLW-sJYMqaG0HMH-2" value="语法分析器" style="rounded=0;whiteSpace=wrap;html=1;" vertex="1" parent="1">
          <mxGeometry x="410" y="230" width="200" height="40" as="geometry" />
        </mxCell>
        <mxCell id="_eNuCBLW-sJYMqaG0HMH-3" value="语义分析器" style="rounded=0;whiteSpace=wrap;html=1;" vertex="1" parent="1">
          <mxGeometry x="410" y="330" width="200" height="40" as="geometry" />
        </mxCell>
        <mxCell id="_eNuCBLW-sJYMqaG0HMH-4" value="中间代码生成器" style="rounded=0;whiteSpace=wrap;html=1;" vertex="1" parent="1">
          <mxGeometry x="410" y="430" width="200" height="40" as="geometry" />
        </mxCell>
        <mxCell id="_eNuCBLW-sJYMqaG0HMH-5" value="机器无关代码优化器" style="rounded=0;whiteSpace=wrap;html=1;" vertex="1" parent="1">
          <mxGeometry x="410" y="530" width="200" height="40" as="geometry" />
        </mxCell>
        <mxCell id="_eNuCBLW-sJYMqaG0HMH-6" value="代码生成器" style="rounded=0;whiteSpace=wrap;html=1;" vertex="1" parent="1">
          <mxGeometry x="410" y="630" width="200" height="40" as="geometry" />
        </mxCell>
        <mxCell id="_eNuCBLW-sJYMqaG0HMH-7" value="机器相关代码生成器" style="rounded=0;whiteSpace=wrap;html=1;" vertex="1" parent="1">
          <mxGeometry x="410" y="730" width="200" height="40" as="geometry" />
        </mxCell>
        <mxCell id="_eNuCBLW-sJYMqaG0HMH-8" value="" style="endArrow=classic;html=1;exitX=0.5;exitY=1;exitDx=0;exitDy=0;" edge="1" parent="1" source="_eNuCBLW-sJYMqaG0HMH-1" target="_eNuCBLW-sJYMqaG0HMH-2">
          <mxGeometry width="50" height="50" relative="1" as="geometry">
            <mxPoint x="510" y="220" as="sourcePoint" />
            <mxPoint x="560" y="170" as="targetPoint" />
          </mxGeometry>
        </mxCell>
        <mxCell id="_eNuCBLW-sJYMqaG0HMH-9" value="" style="endArrow=classic;html=1;exitX=0.5;exitY=1;exitDx=0;exitDy=0;" edge="1" parent="1" source="_eNuCBLW-sJYMqaG0HMH-2">
          <mxGeometry width="50" height="50" relative="1" as="geometry">
            <mxPoint x="510" y="280" as="sourcePoint" />
            <mxPoint x="510" y="330" as="targetPoint" />
          </mxGeometry>
        </mxCell>
        <mxCell id="_eNuCBLW-sJYMqaG0HMH-10" value="" style="endArrow=classic;html=1;exitX=0.5;exitY=1;exitDx=0;exitDy=0;" edge="1" parent="1">
          <mxGeometry width="50" height="50" relative="1" as="geometry">
            <mxPoint x="509.71000000000004" y="370" as="sourcePoint" />
            <mxPoint x="509.71000000000004" y="430" as="targetPoint" />
          </mxGeometry>
        </mxCell>
        <mxCell id="_eNuCBLW-sJYMqaG0HMH-11" value="" style="endArrow=classic;html=1;exitX=0.5;exitY=1;exitDx=0;exitDy=0;" edge="1" parent="1">
          <mxGeometry width="50" height="50" relative="1" as="geometry">
            <mxPoint x="509.71000000000004" y="470" as="sourcePoint" />
            <mxPoint x="509.71000000000004" y="530" as="targetPoint" />
          </mxGeometry>
        </mxCell>
        <mxCell id="_eNuCBLW-sJYMqaG0HMH-12" value="" style="endArrow=classic;html=1;exitX=0.5;exitY=1;exitDx=0;exitDy=0;" edge="1" parent="1">
          <mxGeometry width="50" height="50" relative="1" as="geometry">
            <mxPoint x="509.71000000000004" y="570" as="sourcePoint" />
            <mxPoint x="509.71000000000004" y="630" as="targetPoint" />
          </mxGeometry>
        </mxCell>
        <mxCell id="_eNuCBLW-sJYMqaG0HMH-13" value="" style="endArrow=classic;html=1;exitX=0.5;exitY=1;exitDx=0;exitDy=0;" edge="1" parent="1">
          <mxGeometry width="50" height="50" relative="1" as="geometry">
            <mxPoint x="509.71000000000004" y="670" as="sourcePoint" />
            <mxPoint x="509.71000000000004" y="730" as="targetPoint" />
          </mxGeometry>
        </mxCell>
      </root>
    </mxGraphModel>
  </diagram>
</mxfile>
